<svg xmlns="http://www.w3.org/2000/svg" width="461" height="541" viewBox="0 0 461 541" version="1.1"><path d="M 221 1.379 C 211.450 4.020, 204.699 8.276, 195.448 17.487 C 185.789 27.105, 180.316 35.118, 177.342 44 C 174.908 51.267, 174.913 65.998, 177.353 80.553 L 179.207 91.607 176.603 95.443 C 173.213 100.439, 173.215 105.557, 176.615 120.787 C 179.496 133.695, 179.718 134.267, 184.672 141.594 C 187.166 145.280, 189.190 150.609, 192.001 160.878 C 194.137 168.683, 197.055 177.624, 198.485 180.748 L 201.085 186.427 198.792 188.158 C 197.532 189.109, 183.999 196.278, 168.719 204.089 C 138.401 219.588, 130.249 224.539, 122.183 232.351 C 111.142 243.045, 105.314 254.240, 96.077 282.500 C 87.951 307.360, 83.264 316.161, 70.350 330.805 C 56.875 346.087, 53.384 351.748, 47.547 367.788 C 45.003 374.780, 42.446 381.709, 41.866 383.186 C 41.285 384.664, 37.814 388.939, 34.151 392.686 C 24.667 402.391, 22.492 408.715, 22.522 426.500 C 22.539 436.839, 23.011 441.240, 24.827 448 C 28.984 463.475, 35.553 475.042, 45.334 484.115 C 54.261 492.395, 75.881 504.524, 95 511.978 C 99.452 513.713, 113.643 519.871, 114.784 520.563 C 114.941 520.658, 115.166 524.957, 115.284 530.118 L 115.500 539.500 84.064 539.770 C 66.774 539.918, 52.411 540.256, 52.147 540.520 C 51.883 540.784, 71.204 540.932, 95.083 540.850 C 118.962 540.767, 136.475 540.430, 134 540.100 L 129.500 539.500 129.193 534.127 C 128.888 528.769, 128.894 528.757, 131.527 529.417 C 132.978 529.782, 135.920 531.187, 138.063 532.540 C 140.207 533.893, 142.678 535, 143.554 535 C 146.838 535, 156.636 524.157, 160.944 515.755 L 165.137 507.577 177.818 504.343 C 184.793 502.565, 192.075 501.088, 194 501.061 C 195.925 501.035, 204.412 502.565, 212.861 504.462 C 235.548 509.556, 251.229 511.300, 269.321 510.742 C 292.530 510.026, 301.356 506.897, 312.500 495.437 C 320.629 487.077, 323.638 485.409, 338.355 481.107 C 344.325 479.362, 350.944 477.049, 353.065 475.967 C 355.185 474.885, 357.051 474, 357.210 474.001 C 357.370 474.001, 357.567 488.793, 357.648 506.870 L 357.796 539.738 251.673 539.928 C 193.305 540.032, 145.351 540.316, 145.108 540.558 C 144.865 540.801, 211.192 541, 292.500 541 C 373.808 541, 440.083 540.750, 439.778 540.444 C 439.472 540.139, 424.994 539.866, 407.604 539.839 C 376.085 539.790, 375.984 539.783, 375.582 537.645 C 375.360 536.465, 374.202 527.062, 373.009 516.749 C 371.278 501.794, 370.974 495.215, 371.505 484.249 C 372.430 465.142, 373.376 459.935, 377.958 448.721 C 380.156 443.342, 386.012 426.467, 390.971 411.221 C 395.930 395.974, 401.301 379.900, 402.906 375.500 C 407.588 362.669, 416.940 331.041, 419.061 320.864 C 421.625 308.562, 424 288.414, 424 278.966 C 424 263.877, 418.659 250.796, 408.173 240.198 C 400.131 232.070, 392.587 226.985, 371.500 215.475 C 344.447 200.710, 337.238 195.505, 322.015 179.747 C 314.582 172.053, 306.137 163.998, 303.250 161.847 C 298.145 158.045, 298 157.799, 298 152.966 C 298 148.448, 298.359 147.670, 301.942 144.434 C 306.779 140.063, 308.082 136.680, 312.503 117 C 317.554 94.517, 317.098 83.263, 311.004 80.002 C 309.136 79.003, 309.041 77.976, 309.264 61.222 C 309.519 42.065, 308.579 35.637, 304.477 28.500 C 300.791 22.085, 297.573 19.815, 277.730 9.632 L 258.960 -0 242.230 0.067 C 232.179 0.108, 223.704 0.632, 221 1.379 M 234.500 10.597 C 228.645 12.032, 217.159 16.503, 213.586 18.738 C 206.287 23.303, 191.369 38.740, 188.826 44.360 C 186.697 49.064, 186.512 50.772, 186.638 64.500 C 186.714 72.750, 187.451 84, 188.276 89.500 C 189.573 98.151, 189.584 99.871, 188.360 102.254 C 185.765 107.303, 189.578 128.793, 193.881 133.373 C 195.090 134.660, 196.694 139.137, 197.922 144.651 C 202.615 165.720, 206.767 174.984, 214.612 181.889 C 219.972 186.607, 224.048 187.987, 232.654 187.994 C 244.061 188.005, 256.171 182.498, 267.315 172.233 C 272.351 167.595, 274.011 167.211, 271.936 171.164 C 268.002 178.661, 257.851 187.491, 246.507 193.284 C 241.540 195.820, 238.998 196.428, 231.830 196.794 C 223.663 197.211, 222.837 197.062, 217.580 194.215 L 212 191.192 211.882 194.346 C 211.816 196.081, 211.849 198.175, 211.955 199 C 212.105 200.176, 215.804 208.563, 217.742 212.121 C 217.929 212.463, 214.800 214.810, 210.790 217.337 C 206.781 219.864, 199.710 225.109, 195.077 228.993 C 189.839 233.384, 186.299 235.699, 185.717 235.117 C 182.805 232.205, 194.056 212.867, 204.038 203.625 L 210.144 197.973 205.153 199.940 C 202.409 201.021, 192.968 205.509, 184.174 209.913 C 170.333 216.844, 167.567 218.635, 163.585 223.247 C 155.772 232.297, 146.081 249.286, 138.153 267.833 C 136.629 271.397, 135.421 272.992, 134.508 272.641 C 133.757 272.353, 131.535 271.816, 129.571 271.447 C 126.683 270.905, 126 270.329, 126 268.433 C 126 265.596, 133.492 247.812, 138.609 238.503 C 143.044 230.435, 141.630 230.703, 132.356 239.692 C 121.622 250.096, 113.650 264.645, 105.613 288.500 C 104.130 292.900, 100.870 301.730, 98.367 308.122 L 93.818 319.744 97.465 324.523 C 103.779 332.794, 106.778 340.235, 104.914 343.008 C 104.069 344.266, 103.644 344.109, 102.206 342.009 C 96.664 333.916, 89.752 328.831, 86.780 330.659 C 83.368 332.757, 69.134 349.239, 65.794 354.959 C 63.756 358.449, 60.444 365.624, 58.435 370.902 C 52.509 386.469, 50.258 390.937, 44.575 398.414 C 38.051 406.998, 35.883 412.885, 35.238 423.769 C 34.699 432.844, 35.730 439.521, 39.502 451.406 C 44.357 466.706, 51.115 474.748, 66.746 483.832 C 74.532 488.357, 76.829 489.420, 98.500 498.521 C 117.720 506.592, 127.798 511.604, 134.500 516.421 C 140.596 520.803, 140.723 520.693, 145.002 507.336 C 148.734 495.684, 150.091 487.474, 148.601 485.561 C 147.629 484.313, 122.726 475.945, 111.250 473.010 C 107.796 472.126, 107 471.492, 107 469.621 C 107 465.420, 112.071 442.207, 114.608 434.796 C 117.919 425.123, 117.920 425.100, 114.762 422.704 C 109.403 418.639, 93.021 420.790, 80 427.267 C 76.425 429.045, 73.119 430.665, 72.653 430.866 C 71.195 431.495, 74.188 426.671, 76.397 424.832 C 79.029 422.641, 88.687 418.568, 96.250 416.461 C 99.412 415.579, 101.998 414.553, 101.995 414.179 C 101.987 413.192, 91.940 406.028, 85.253 402.243 C 82.089 400.451, 76.215 397.936, 72.199 396.654 C 64.929 394.332, 63.105 392.785, 66.932 392.184 C 70.264 391.661, 86.089 394.984, 92.554 397.564 L 98.607 399.980 104.691 394.064 C 108.037 390.810, 113.075 386.982, 115.887 385.557 C 121.816 382.553, 121.599 383.790, 119.377 365.708 C 117.655 351.699, 117.925 329.675, 119.841 327.759 C 121.048 326.552, 121.635 329.669, 122.522 342 C 123.195 351.349, 125.034 361.456, 128.179 373.102 L 130.232 380.703 142.366 381.355 C 149.040 381.713, 160.125 382.690, 167 383.527 C 173.875 384.363, 184 385.482, 189.500 386.013 C 195 386.544, 201.975 387.247, 205 387.574 C 210.377 388.155, 210.701 388.041, 219.500 382.456 C 230.740 375.323, 246.726 367, 249.187 367 C 250.209 367, 252.947 365.260, 255.272 363.134 C 260.396 358.449, 264.248 356.401, 270.632 354.970 C 280.733 352.707, 283.161 350.961, 287.405 342.909 C 295.745 327.083, 311.798 304.521, 313.520 306.203 C 313.916 306.590, 311.881 312.534, 308.997 319.413 C 306.114 326.291, 304.021 332.612, 304.346 333.459 C 305.647 336.849, 314.382 334.873, 324.500 328.901 C 341.202 319.042, 349.994 315.004, 357.750 313.627 C 362.584 312.769, 361.698 314.415, 355.420 317.958 C 352.352 319.690, 346.333 324.388, 342.045 328.397 C 331.725 338.048, 323.344 341.452, 304.885 343.490 C 300.088 344.020, 299.097 344.492, 298.075 346.735 C 296.897 349.321, 297.539 351.673, 301.149 358 C 304.643 364.124, 304.592 369.676, 301.007 373.493 C 299.304 375.305, 299.114 376.171, 299.943 378.349 C 301.131 381.475, 299.940 385.354, 296.744 388.766 C 293.737 391.976, 280.557 395.886, 266.500 397.737 C 256.046 399.114, 250.700 399.168, 225 398.162 C 208.775 397.527, 188.300 396.478, 179.500 395.832 C 170.700 395.186, 162.375 394.941, 161 395.288 C 159.625 395.635, 155.166 399.200, 151.092 403.210 C 138.398 415.702, 131.577 426.271, 126.570 441.207 C 123.483 450.414, 120.788 463.219, 121.760 464.062 C 122.167 464.416, 140.050 470.613, 161.500 477.834 C 218.699 497.089, 232.199 500.262, 257.500 500.400 C 269.030 500.463, 274.235 500.049, 280 498.611 C 287.303 496.789, 302.741 490.408, 301.894 489.561 C 301.661 489.328, 296.753 489.572, 290.986 490.102 C 278.940 491.210, 265.175 490.503, 256.500 488.333 C 250.233 486.765, 237.986 480.838, 239.779 480.240 C 240.347 480.051, 245.820 480.594, 251.941 481.448 C 277.095 484.956, 313.449 481.616, 331.918 474.100 C 354.251 465.012, 362.585 450.524, 386.492 379.225 C 389.678 369.724, 392.054 361.721, 391.773 361.440 C 390.139 359.806, 362.775 367.318, 351.761 372.424 C 347.768 374.276, 344.308 375.608, 344.073 375.385 C 343.145 374.503, 349.873 368.613, 356.620 364.401 C 364.352 359.573, 374.614 355.538, 388.127 352.013 L 396.753 349.762 401.407 335.963 C 407.941 316.587, 410.986 301.168, 410.977 287.500 C 410.966 268.837, 406.977 257.366, 396.652 246.302 C 389.005 238.107, 381.829 233.140, 363 223.006 C 354.475 218.418, 344.240 212.497, 340.256 209.849 L 333.013 205.034 331.557 208.517 C 330.757 210.433, 329.909 212, 329.673 212 C 329.437 212, 327.596 211.311, 325.582 210.470 C 322.054 208.996, 321.947 208.805, 322.655 205.220 C 323.059 203.174, 323.414 200.510, 323.445 199.299 C 323.521 196.265, 300.079 172.584, 293.894 169.448 C 289.626 167.283, 289.240 166.767, 288.644 162.416 C 287.825 156.445, 287.909 146.661, 288.824 141.506 C 289.360 138.481, 290.212 137.186, 292.334 136.169 C 296.216 134.308, 298.673 129.823, 299.464 123.155 C 299.832 120.045, 300.582 115.773, 301.129 113.662 C 301.676 111.552, 302.759 106.212, 303.536 101.797 C 305.091 92.952, 304.542 90.604, 300.694 89.638 L 298.336 89.046 298.785 68.273 C 299.325 43.351, 298.812 40.700, 292.180 34.124 C 287.700 29.681, 265.541 17.187, 254.040 12.620 C 249.576 10.847, 238.261 9.675, 234.500 10.597 M 288.461 174.122 C 287.265 177.891, 273.081 191.726, 264.168 197.818 C 250.785 206.966, 236.841 213.371, 228.500 214.201 C 226.850 214.366, 225.556 214.867, 225.626 215.315 C 226.043 218.023, 242.938 248.725, 245.698 251.791 L 249.037 255.500 250.765 253 C 254.323 247.850, 268.688 229.049, 278.829 216.267 C 300.400 189.079, 301.881 185.095, 294.076 175.250 C 291.086 171.478, 289.408 171.140, 288.461 174.122 M 298.341 210.470 C 295.503 211.910, 290.806 215.427, 287.902 218.285 C 282.857 223.252, 273 237.326, 273 239.565 C 273 240.553, 279.096 244, 280.844 244 C 281.271 244, 283.573 241.051, 285.960 237.446 C 294.569 224.447, 304.758 217.906, 314.078 219.396 C 323.620 220.922, 333.699 228.926, 336.078 236.866 C 338.388 244.576, 333.677 255.713, 320.572 273.527 C 319.927 274.403, 320.539 275.577, 322.572 277.363 C 324.182 278.779, 325.978 279.951, 326.563 279.968 C 329.198 280.047, 338.692 266.942, 343.899 256.041 C 347.105 249.327, 347.500 247.623, 347.500 240.500 C 347.500 233.446, 347.156 231.925, 344.590 227.639 C 341.256 222.070, 333.006 215.209, 325 211.347 C 320.880 209.359, 317.492 208.588, 311.500 208.273 C 304.376 207.898, 302.935 208.138, 298.341 210.470 M 179.432 215.395 C 173.060 219.686, 164.293 227.679, 158.926 234.089 L 154.774 239.047 156.981 244.178 C 159.643 250.366, 159.268 252.973, 154.681 260.165 C 152.809 263.099, 150.277 267.471, 149.053 269.879 L 146.828 274.258 151.783 284.879 C 154.508 290.721, 157.887 299.100, 159.292 303.500 C 164.550 319.963, 169.813 345.657, 171.994 365.500 C 173.588 380.004, 173.993 382.122, 175.051 381.469 C 176.424 380.620, 176.219 368.721, 174.473 348.002 C 171.939 317.938, 167.413 296.015, 160.920 282.357 C 159.314 278.978, 158 275.476, 158 274.574 C 158 272.573, 161.818 265.085, 165.942 259 C 169.537 253.695, 169.633 252.614, 167.022 246.859 C 165.934 244.462, 165.034 241.594, 165.022 240.487 C 164.992 237.710, 170.422 229.971, 178.884 220.730 C 182.798 216.457, 186 212.745, 186 212.480 C 186 211.385, 184.199 212.184, 179.432 215.395 M 314.884 226.776 C 313.995 228.824, 311.295 235.900, 308.884 242.500 L 304.500 254.500 293.800 255.534 C 287.914 256.102, 282.762 256.905, 282.349 257.317 C 281.937 257.730, 282.388 261.027, 283.352 264.644 L 285.105 271.221 278.808 277.861 C 275.345 281.512, 272.284 284.725, 272.005 285 C 266.008 290.915, 249.643 311.523, 243.778 320.545 C 239.950 326.433, 234 338.558, 234 340.470 C 234 342.232, 236.330 340.380, 239.004 336.494 C 246.357 325.807, 265.674 304.900, 286.069 285.555 L 295.500 276.610 295.500 270.612 L 295.500 264.614 301.786 263.471 C 305.243 262.843, 308.459 261.917, 308.932 261.414 C 310.033 260.244, 318 228.614, 318 225.413 C 318 221.937, 316.746 222.485, 314.884 226.776 M 189.239 237.998 C 186.477 240.198, 183.960 243.024, 183.645 244.280 C 182.380 249.317, 179.951 273.571, 178.915 291.500 C 176.836 327.473, 177.567 380.833, 180.104 378.296 C 180.596 377.804, 181.443 366.398, 181.986 352.951 C 182.529 339.503, 183.690 317.722, 184.567 304.548 C 186.291 278.627, 187.299 273.823, 194.587 256.797 C 197.845 249.185, 198.015 248.246, 197.390 241.346 C 196.956 236.555, 196.296 234, 195.493 234 C 194.815 234, 192.001 235.799, 189.239 237.998 M 226.165 239.250 C 224.021 242.137, 221.307 245.357, 220.133 246.405 C 217.757 248.527, 217.488 251.492, 219.019 258.701 C 221.358 269.721, 221.802 277.383, 220.276 280.384 C 217.162 286.510, 206.962 313.268, 201.554 329.500 C 192.587 356.411, 186.185 384, 188.906 384 C 189.508 384, 190 383.402, 190 382.670 C 190 381.412, 200.444 349.811, 202.918 343.584 L 204.076 340.669 207.948 344.449 C 210.077 346.528, 212.288 347.940, 212.860 347.587 C 213.432 347.233, 214.331 347.751, 214.859 348.737 C 216.159 351.165, 223.681 355.326, 224.468 354.052 C 225.272 352.751, 222.209 346.858, 219.870 345.206 C 218.406 344.173, 218.263 343.552, 219.158 342.118 C 220.090 340.626, 219.680 339.707, 216.723 336.662 C 212.773 332.594, 211.479 332.276, 208.212 334.564 L 205.979 336.128 207.883 331.314 C 218.156 305.350, 229.411 282.248, 238.510 268.447 C 242.080 263.033, 245 258.164, 245 257.628 C 245 256.235, 231.645 234.072, 230.782 234.033 C 230.386 234.015, 228.309 236.363, 226.165 239.250 M 269.740 246.527 C 253.135 269.883, 232.871 306.669, 227.614 323 C 224.601 332.362, 223.364 341.797, 224.416 347.403 C 225.277 351.992, 230.084 357.543, 234.445 358.982 C 236.284 359.589, 237.995 360.872, 238.246 361.834 C 238.744 363.735, 246.010 366.594, 248.206 365.751 C 248.951 365.465, 250.447 363.573, 251.530 361.545 C 253.373 358.096, 253.391 357.778, 251.801 356.606 C 250.866 355.917, 248.244 354.741, 245.974 353.991 C 242.448 352.828, 241.720 352.836, 240.972 354.046 C 240.242 355.227, 239.631 355.118, 237.298 353.391 C 233.122 350.300, 231.633 346.388, 231.771 338.869 C 232.058 323.299, 244.342 296.907, 268.343 260.294 C 273.104 253.031, 277 246.502, 277 245.785 C 277 245.068, 276.095 243.916, 274.990 243.226 C 273.176 242.093, 272.663 242.415, 269.740 246.527 M 118.549 277.677 C 111.071 281.725, 107.001 290.853, 108.429 300.375 C 109.812 309.598, 119.548 316.346, 128.070 313.990 C 132.800 312.682, 138.744 307.540, 140.596 303.156 C 143.492 296.299, 142.243 286.342, 137.803 280.904 C 133.990 276.233, 124.238 274.598, 118.549 277.677 M 301.277 295.888 C 276.118 322.013, 256.282 338.174, 241.433 344.642 C 237.895 346.184, 235 347.745, 235 348.112 C 235 348.478, 235.861 349.841, 236.912 351.139 L 238.825 353.500 244.256 350.837 C 257.917 344.141, 274.151 331.519, 294.715 311.607 C 315.548 291.434, 323.633 282.228, 322.331 280.159 C 321.756 279.247, 320.659 278.388, 319.893 278.252 C 319.127 278.116, 310.750 286.052, 301.277 295.888 M 278.766 359.467 C 275.612 360.777, 270.437 362.618, 267.266 363.558 C 264.095 364.498, 262.111 365.485, 262.858 365.752 C 265.007 366.522, 289.345 359.818, 291.450 357.876 C 293.453 356.029, 284.270 357.180, 278.766 359.467 M 271.500 369.982 C 259.400 373.094, 248.600 375.943, 247.500 376.314 C 244.910 377.187, 232.221 384.999, 233.391 384.999 C 233.881 385, 239.731 383.157, 246.391 380.905 C 262.178 375.566, 273.227 373.135, 285.335 372.336 C 295.939 371.637, 298.791 370.347, 297.026 367.048 C 296.492 366.051, 295.481 365.031, 294.778 364.780 C 294.075 364.530, 283.600 366.871, 271.500 369.982 M 278.500 379.569 C 275.750 380.304, 272.198 381.177, 270.606 381.508 C 267.725 382.108, 267.721 382.117, 269.856 383.612 C 271.035 384.438, 272.007 385.650, 272.015 386.307 C 272.024 386.963, 272.423 388.120, 272.903 388.877 C 274.605 391.564, 292 385.789, 292 382.536 C 292 380.650, 288.075 377.970, 285.527 378.116 C 284.412 378.180, 281.250 378.834, 278.500 379.569 M 248.822 388.889 C 244.598 389.775, 240.811 390.837, 240.405 391.250 C 239.514 392.155, 255.516 392.091, 262.434 391.162 C 267.136 390.531, 267.286 390.418, 265.613 388.750 C 263.492 386.636, 259.395 386.669, 248.822 388.889 M 127.746 393.086 C 122.189 394.395, 114.905 398.386, 111.500 401.985 L 108.500 405.157 110.675 406.828 C 113.464 408.971, 124.658 416, 125.282 416 C 125.543 416, 127.707 413.472, 130.091 410.383 C 132.474 407.293, 137.366 402.280, 140.962 399.243 C 144.558 396.206, 147.650 393.333, 147.833 392.860 C 148.263 391.752, 132.661 391.927, 127.746 393.086 M 184.500 401.715 C 174.891 403.043, 159 408.932, 159 411.164 C 159 412.203, 159.161 412.200, 166.500 411.021 C 174.062 409.807, 201.045 407.337, 215.500 406.536 C 239.116 405.228, 241.642 404.173, 226.091 402.114 C 218.176 401.065, 191.074 400.805, 184.500 401.715 M 158.803 492.561 C 158.574 494.519, 158.771 496.358, 159.240 496.648 C 160.850 497.643, 176 495.317, 176 494.075 C 176 493.366, 162.402 489, 160.196 489 C 159.658 489, 159.032 490.602, 158.803 492.561" stroke="none" fill="#000000" fill-rule="evenodd"/></svg>