<svg xmlns="http://www.w3.org/2000/svg" width="733" height="340" viewBox="0 0 733 340" version="1.1"><path d="M 362.500 83.877 C 352.286 87.564, 346.221 91.789, 341.392 98.580 C 337.783 103.657, 335.355 112.293, 336.384 116.393 C 337.356 120.267, 339.151 119.548, 342.472 113.954 C 345.650 108.602, 350.612 103.278, 351.548 104.215 C 351.862 104.528, 350.741 107.820, 349.059 111.530 C 347.376 115.241, 346 119.564, 346 121.138 C 346 123.782, 346.285 123.998, 349.750 123.978 C 360.741 123.914, 367.263 116.159, 369.915 100 C 370.502 96.425, 372.111 91.321, 373.491 88.658 C 374.871 85.994, 376 83.407, 376 82.908 C 376 81.379, 367.788 81.968, 362.500 83.877 M 302 110.979 C 293.093 112.648, 278.123 121.408, 278.015 125.013 C 278.007 125.296, 280.363 126.088, 283.250 126.774 C 286.137 127.460, 291.875 129.975, 296 132.363 C 300.125 134.751, 305.240 137.274, 307.367 137.969 C 312.917 139.782, 320.180 138.809, 325.025 135.602 C 332.882 130.403, 331.472 128, 318.737 124.888 C 307.312 122.096, 308.290 120.602, 321.138 121.221 C 330.104 121.653, 331 121.534, 331 119.916 C 331 117.951, 326.935 114.706, 321.765 112.546 C 317.341 110.698, 307.615 109.927, 302 110.979 M 349.500 131.862 C 325.301 138.153, 308.915 151.408, 298.517 173.105 C 293.343 183.902, 291.667 192.906, 292.238 206.839 C 292.848 221.719, 295.838 230.742, 304.383 243.488 C 310.396 252.456, 315.485 257.531, 324.428 263.475 C 336.509 271.506, 345.041 274.676, 358 275.949 C 381.440 278.251, 402.145 271.363, 418.907 255.684 C 427.201 247.926, 435.062 236.470, 434.953 232.300 C 434.918 230.962, 434.212 231.398, 432.203 234 C 427.505 240.083, 419.012 248.720, 414.980 251.514 C 411.423 253.979, 410.581 254.148, 405.047 253.505 C 401.721 253.119, 399 252.440, 399 251.996 C 399 251.552, 400.646 249.234, 402.657 246.845 C 404.668 244.455, 407.593 239.697, 409.157 236.272 C 414.199 225.227, 412.520 208.824, 405.353 199.095 C 400.917 193.074, 394.632 187.627, 389.180 185.079 C 386.331 183.748, 384 182.074, 384 181.359 C 384 180.644, 385.350 177.403, 387 174.156 C 390.381 167.502, 390.547 166.307, 388.468 163.559 C 387.661 162.491, 387 160.604, 387 159.365 C 387 158.125, 385.959 155.901, 384.686 154.422 C 382.077 151.388, 378.553 150.948, 373 152.960 C 365.621 155.634, 364.468 156.586, 361.419 162.512 C 343.024 198.265, 342.668 199.104, 343.924 203.652 C 344.508 205.768, 345.102 208.850, 345.243 210.500 C 345.453 212.947, 346.363 213.956, 350.178 215.971 C 354.843 218.435, 354.861 218.436, 357.028 216.471 C 358.223 215.387, 361.068 213.600, 363.350 212.500 C 366.572 210.947, 368.118 209.273, 370.266 205.012 C 371.788 201.993, 373.836 198.719, 374.819 197.736 C 376.469 196.086, 376.932 196.065, 380.868 197.453 C 390.506 200.854, 396.074 208.614, 396.787 219.641 C 397.179 225.707, 396.897 227.488, 394.907 231.471 C 390.107 241.082, 379.860 246.835, 369.613 245.671 C 362.334 244.844, 357.735 243.334, 355.143 240.918 C 350.941 237.004, 353.851 235.282, 365 235.084 C 372.314 234.955, 374.359 234.104, 373.840 231.405 C 373.100 227.565, 369.578 227.030, 344.941 227.015 C 319.452 226.999, 317.493 227.367, 318.155 232.056 C 318.484 234.387, 318.903 234.524, 327.223 235.023 C 332.021 235.311, 336.430 236.030, 337.020 236.620 C 337.650 237.250, 337.971 240.751, 337.797 245.097 L 337.500 252.500 332.239 252.803 L 326.979 253.105 319.834 245.803 C 301.123 226.679, 296.959 198.491, 309.103 173.167 C 312.358 166.379, 314.933 162.867, 321.841 155.793 C 326.604 150.916, 332.300 145.922, 334.500 144.693 C 347.460 137.459, 362.293 133.072, 373.950 133.026 C 379.069 133.005, 380.145 132.745, 379.165 131.765 C 377.064 129.664, 357.713 129.727, 349.500 131.862" stroke="none" fill="#000000" fill-rule="evenodd"/></svg>