<svg xmlns="http://www.w3.org/2000/svg" width="500" height="500" viewBox="0 0 500 500" version="1.1"><path d="M 239.500 94.402 C 226.993 98.368, 216.314 109.064, 213.599 120.344 C 212.940 123.081, 212.832 123.127, 210.707 121.562 C 205.604 117.803, 193.861 112.847, 187.890 111.932 C 184.152 111.358, 160.129 111.066, 130 111.226 L 78.500 111.500 78.500 118.500 C 78.500 127.494, 80.873 133.657, 86.609 139.559 C 91.567 144.660, 97.517 147.698, 104.398 148.641 C 108.807 149.245, 109.071 149.476, 111.540 154.884 C 116.411 165.551, 123.801 171.115, 135.842 173.180 L 142.785 174.370 145.001 179.717 C 147.770 186.396, 153.466 192.415, 159.708 195.257 C 163.673 197.062, 166.983 197.530, 178.892 197.969 L 193.285 198.500 194.440 203.061 C 197.040 213.330, 205.081 219.384, 229.500 229.463 L 233.500 231.114 227.541 234.307 C 205.085 246.338, 206.859 266.386, 231.807 282.540 L 237.890 286.478 231.489 292.694 C 223.989 299.975, 221.039 305.217, 220.275 312.623 C 219.436 320.757, 223.811 328.893, 234.894 339.805 C 239.627 344.465, 244.961 349.392, 246.747 350.755 C 250.752 353.811, 250.836 353.765, 263.588 341.348 C 277.387 327.913, 281.797 318.490, 278.986 308.451 C 276.519 299.640, 269.479 292.233, 251.244 279.263 C 246.153 275.642, 242.175 272.492, 242.403 272.263 C 242.752 271.914, 252.871 271.704, 258 271.939 C 258.825 271.977, 258.037 272.899, 256.250 273.989 C 254.462 275.079, 253 276.167, 253 276.406 C 253 276.646, 255.532 278.638, 258.627 280.834 L 264.254 284.825 269.377 281.693 C 285.460 271.860, 291.895 257.280, 285.242 245.747 C 282.196 240.467, 273.971 234, 270.302 234 C 269.012 234, 264.928 235.384, 261.228 237.076 L 254.500 240.152 259 242.531 L 263.500 244.910 250 244.924 C 241.838 244.933, 237.093 244.594, 238 244.066 C 238.825 243.586, 249.850 238.614, 262.500 233.018 C 275.150 227.422, 287.469 221.702, 289.875 220.306 C 298.870 215.090, 304.507 208.497, 305.955 201.500 L 306.576 198.500 321.038 197.938 C 331.709 197.524, 336.614 196.906, 339.748 195.580 C 345.044 193.342, 353.264 184.493, 355.509 178.616 C 357.099 174.452, 357.464 174.160, 361.848 173.546 C 374.756 171.738, 382.801 166.213, 388.051 155.548 C 391.065 149.426, 391.336 149.177, 395.680 148.525 C 405.994 146.979, 413.753 141.261, 418.784 131.500 C 420.850 127.493, 421.376 125.011, 421.431 119 L 421.500 111.500 370.500 111.226 C 338.427 111.054, 316.902 111.344, 312.500 112.006 C 305.903 112.998, 294.601 117.652, 289.293 121.562 C 287.168 123.127, 287.060 123.081, 286.401 120.344 C 284.600 112.864, 278.194 104.294, 270.390 98.924 C 262.617 93.576, 248.583 91.522, 239.500 94.402 M 246 107.008 C 239.875 108.182, 235.479 110.622, 231.850 114.862 C 221.324 127.159, 225.266 146.112, 239.726 152.732 C 255.711 160.050, 274 148.676, 274 131.416 C 274 128.022, 273.305 123.580, 272.455 121.546 C 268.201 111.364, 256.581 104.979, 246 107.008 M 244 118.500 C 244 122.153, 243.580 124.051, 242.750 124.151 C 242.063 124.234, 239.475 124.346, 237 124.401 L 232.500 124.500 232.204 130.699 L 231.907 136.897 237.704 137.199 L 243.500 137.500 243.801 143.298 L 244.103 149.097 249.801 148.798 L 255.500 148.500 256 143 L 256.500 137.500 262.296 137.199 L 268.093 136.897 267.796 130.699 L 267.500 124.500 261.750 124.200 L 256 123.900 256 118.450 L 256 113 250 113 L 244 113 244 118.500 M 94 126.142 C 94 128.203, 101.012 133.909, 104.856 134.977 C 107.032 135.581, 124.520 135.991, 148.250 135.994 L 188 136 188 142.500 L 188 149 156.500 149 C 131.949 149, 125.007 149.276, 125.033 150.250 C 125.083 152.126, 128.269 155.584, 132.097 157.918 C 135.346 159.898, 136.894 159.993, 166.250 159.996 L 197 160 197 167 L 197 174 177.500 174 C 163.652 174, 158 174.328, 158 175.132 C 158 177.249, 165.070 182.942, 169.020 184.005 C 171.185 184.588, 178.308 185.006, 184.849 184.935 L 196.743 184.804 201.750 179.484 C 204.505 176.558, 208.643 173.202, 210.947 172.027 C 222.668 166.047, 237 170.195, 237 179.567 C 237 186.140, 227.557 193, 218.511 193 C 214.646 193, 213.788 193.372, 212.839 195.455 C 210.158 201.339, 217.234 208.876, 231.879 215.734 C 237.171 218.211, 241.838 220.436, 242.250 220.678 C 242.662 220.920, 243 209.166, 243 194.559 C 243 178.210, 242.630 168, 242.038 168 C 241.508 168, 238.605 167.076, 235.586 165.946 C 228.414 163.263, 220.943 156.436, 215.914 147.972 C 210.868 139.478, 202.753 131.711, 195.253 128.196 L 189.500 125.500 141.750 125.213 C 104.777 124.991, 94 125.201, 94 126.142 M 309.500 126.399 C 299.418 129.587, 291.693 136.123, 284.122 147.867 C 277.162 158.665, 270.433 164.292, 261.159 167.071 L 257 168.317 257 194.158 C 257 212.323, 257.328 220, 258.103 220 C 260.536 220, 276.591 211.757, 280.674 208.411 C 290.165 200.634, 290.242 193, 280.830 193 C 275.911 193, 271.467 190.986, 266.647 186.571 C 260.368 180.820, 262.057 174.103, 270.718 170.382 C 278.926 166.856, 288.850 170.144, 298.303 179.521 L 303.770 184.945 317.635 184.722 C 330.203 184.521, 331.851 184.282, 335.251 182.168 C 338.815 179.952, 342 176.464, 342 174.777 C 342 174.350, 333.225 174, 322.500 174 L 303 174 303 167 L 303 160 333.860 160 L 364.721 160 368.505 157.432 C 372.795 154.521, 376.043 150.878, 375.349 149.755 C 375.092 149.340, 360.734 149, 343.441 149 L 312 149 312 142.500 L 312 136 351.750 135.994 C 377.519 135.991, 392.890 135.603, 395.453 134.891 C 399.337 133.813, 406 128.259, 406 126.100 C 406 124.422, 314.858 124.704, 309.500 126.399 M 227.070 252.869 C 226.520 253.896, 226.355 255.021, 226.702 255.369 C 227.485 256.151, 274 256.216, 274 255.434 C 274 255.123, 273.534 253.998, 272.965 252.934 C 271.990 251.112, 270.658 251, 250 251 C 229.608 251, 228 251.131, 227.070 252.869 M 228.664 261.669 C 228.297 262.037, 228.741 263.162, 229.653 264.169 C 231.148 265.821, 233.128 265.997, 249.905 265.968 C 264.269 265.944, 268.921 265.617, 270.350 264.535 C 274.292 261.548, 271.152 261, 250.108 261 C 238.682 261, 229.032 261.301, 228.664 261.669 M 244 299 L 239.500 302.940 250 302.940 L 260.500 302.940 256 299 C 253.525 296.833, 250.825 295.060, 250 295.060 C 249.175 295.060, 246.475 296.833, 244 299 M 234.070 310.869 C 233.520 311.896, 233.355 313.021, 233.702 313.369 C 234.480 314.147, 265.450 314.217, 266.225 313.442 C 266.531 313.135, 266.554 312.010, 266.275 310.942 C 265.800 309.126, 264.773 309, 250.419 309 C 236.454 309, 234.980 309.168, 234.070 310.869 M 235.897 320.063 C 235.367 320.391, 235.221 321.411, 235.573 322.330 C 236.129 323.778, 238.044 324, 250 324 C 261.865 324, 263.874 323.771, 264.417 322.357 C 264.763 321.453, 264.884 320.551, 264.685 320.352 C 264.049 319.716, 236.901 319.443, 235.897 320.063 M 246.134 329.953 L 240.767 330.500 244.825 333.750 C 247.057 335.538, 249.472 336.988, 250.191 336.973 C 251.737 336.941, 258.712 331.351, 257.994 330.721 C 256.942 329.798, 251.262 329.430, 246.134 329.953" stroke="none" fill="#000000" fill-rule="evenodd"/></svg>