<?xml version="1.0" encoding="iso-8859-1"?>
<!-- Uploaded to: SVG Repo, www.svgrepo.com, Generator: SVG Repo Mixer Tools -->
<svg fill="#000000" height="800px" width="800px" version="1.1" id="Layer_1" xmlns="http://www.w3.org/2000/svg" xmlns:xlink="http://www.w3.org/1999/xlink" 
	 viewBox="0 0 511.999 511.999" xml:space="preserve">
<g>
	<g>
		<path d="M192.976,227.194c-14.404,0-26.122,11.719-26.122,26.122c0,5.77,4.678,10.449,10.449,10.449
			c5.771,0,10.449-4.679,10.449-10.449c0-2.881,2.344-5.224,5.224-5.224s5.224,2.344,5.224,5.224c0,5.77,4.678,10.449,10.449,10.449
			c5.77,0,10.449-4.679,10.449-10.449C219.098,238.913,207.38,227.194,192.976,227.194z"/>
	</g>
</g>
<g>
	<g>
		<path d="M319.024,227.194c-14.404,0-26.122,11.719-26.122,26.122c0,5.77,4.678,10.449,10.449,10.449
			c5.771,0,10.449-4.679,10.449-10.449c0-2.881,2.344-5.224,5.224-5.224c2.881,0,5.225,2.344,5.225,5.224
			c0,5.77,4.678,10.449,10.449,10.449c5.771,0,10.449-4.679,10.449-10.449C345.147,238.913,333.428,227.194,319.024,227.194z"/>
	</g>
</g>
<g>
	<g>
		<path d="M450.931,191.166c-1.024,0-2.048,0.03-3.072,0.086c-27.06-79.964-102.8-137.69-191.776-137.73v-0.001
			c-0.008,0-0.016,0-0.024,0c-0.02,0-0.04,0-0.061,0c-89.01,0.003-164.789,57.741-191.857,137.73
			c-1.024-0.054-2.048-0.086-3.072-0.086C27.395,191.166,0,220.25,0,255.999c0,35.748,27.395,64.831,61.069,64.831
			c1.033,0,2.067-0.03,3.099-0.086c8.082,23.954,20.623,46.367,37.152,65.916c30.457,36.022,72.665,60.403,118.848,68.653
			c5.68,1.013,11.108-2.767,12.124-8.448c1.015-5.681-2.768-11.109-8.448-12.124c-86.581-15.469-149.422-90.641-149.422-178.743
			c0.002-79.896,51.874-147.903,123.708-172.121c-7.956,11.425-12.638,25.292-12.638,40.238c0,32.291,26.272,58.562,58.563,58.562
			c0.002,0,0.003,0,0.005,0c12.938,0,24.994-4.156,33.946-11.699c9.667-8.147,14.991-19.595,14.991-32.235
			c0-18.961-9.519-32.844-25.465-37.137c-5.57-1.499-11.305,1.8-12.806,7.374c-1.5,5.572,1.801,11.306,7.374,12.806
			c6.635,1.787,10,7.492,10,16.958c0,8.169-4.112,13.348-7.56,16.255c-5.189,4.373-12.461,6.78-20.48,6.78c-0.001,0-0.003,0-0.003,0
			c-20.769,0-37.666-16.896-37.666-37.664c0-27.394,22.277-49.681,49.665-49.696c100.096,0.033,181.522,81.477,181.523,181.579
			c0,88.221-62.94,163.411-149.659,178.784c-5.682,1.007-9.472,6.43-8.465,12.114c0.899,5.066,5.305,8.627,10.277,8.627
			c0.605,0,1.219-0.053,1.836-0.162c46.244-8.199,88.516-32.562,119.029-68.602c16.571-19.573,29.14-42.021,37.236-66.015
			c1.032,0.055,2.066,0.086,3.099,0.086c33.674,0,61.069-29.083,61.069-64.831C512,220.25,484.605,191.166,450.931,191.166z
			 M20.898,255.999c0-23.212,16.548-42.265,37.418-43.82c-3.127,14.117-4.791,28.776-4.791,43.82
			c0,14.826,1.636,29.517,4.809,43.819C37.455,298.273,20.898,279.217,20.898,255.999z M453.668,299.819
			c3.172-14.302,4.809-28.992,4.809-43.819c0-15.043-1.663-29.703-4.791-43.82c20.869,1.554,37.417,20.606,37.417,43.819
			C491.102,279.217,474.545,298.273,453.668,299.819z"/>
	</g>
</g>
<g>
	<g>
		<path d="M314.195,301.984c-15.661-12.005-36.328-18.616-58.196-18.616s-42.535,6.611-58.196,18.616
			c-16.485,12.637-25.564,29.694-25.564,48.03s9.079,35.393,25.564,48.03c15.661,12.005,36.328,18.616,58.196,18.616
			s42.536-6.611,58.196-18.616c16.485-12.637,25.565-29.694,25.565-48.03S330.68,314.621,314.195,301.984z M240.363,328.472
			c0.927-3.136,2.483-5.654,4.285-8.57c2.492-4.033,5.459-8.854,6.592-15.492c1.574-0.087,3.158-0.144,4.761-0.144
			c1.602-0.001,3.187,0.058,4.76,0.144c1.134,6.637,4.1,11.458,6.591,15.492c1.801,2.916,3.356,5.435,4.285,8.573
			c0.195,0.66,0.295,1.696,0.295,3.08c0.001,8.779-7.147,15.923-15.932,15.924c-8.787-0.001-15.934-7.145-15.934-15.925
			C240.067,330.171,240.167,329.135,240.363,328.472z M255.999,395.761c-34.662,0-62.862-20.523-62.862-45.748
			c0-17.445,13.49-32.634,33.272-40.349c-2.063,3.352-4.487,7.469-6.086,12.878c-0.788,2.66-1.155,5.523-1.155,9.012
			c0,20.303,16.523,36.822,36.832,36.823c20.31-0.001,36.832-16.521,36.83-36.823c0-3.489-0.367-6.352-1.154-9.009
			c-1.601-5.411-4.024-9.528-6.087-12.88c19.782,7.714,33.271,22.904,33.271,40.348
			C318.861,375.238,290.661,395.761,255.999,395.761z"/>
	</g>
</g>
<g>
	<g>
		<path d="M256.296,437.581l-0.245-0.004c-5.759-0.112-10.525,4.503-10.621,10.273c-0.096,5.77,4.504,10.525,10.273,10.622
			l0.245,0.004c0.06,0.001,0.118,0.001,0.178,0.001c5.688,0,10.349-4.564,10.444-10.275
			C266.665,442.433,262.066,437.678,256.296,437.581z"/>
	</g>
</g>
</svg>