<?xml version="1.0" encoding="iso-8859-1"?>
<!-- Uploaded to: SVG Repo, www.svgrepo.com, Generator: SVG Repo Mixer Tools -->
<svg fill="#000000" height="800px" width="800px" version="1.1" id="Layer_1" xmlns="http://www.w3.org/2000/svg" xmlns:xlink="http://www.w3.org/1999/xlink" 
	 viewBox="0 0 512.001 512.001" xml:space="preserve">
<g>
	<g>
		<path d="M196.371,242.536l-78.681,10.473v5.144h0.234c64.986,0.001,14.168-0.083,82.216-0.083L196.371,242.536z"/>
	</g>
</g>
<g>
	<g>
		<circle cx="162.185" cy="34.967" r="34.967"/>
	</g>
</g>
<g>
	<g>
		<path d="M244.139,196.35c-2.191-9.034-10.28-15.234-19.349-15.234c-1.86,0,1.152-0.33-44.664,5.77
			c-2.324,18.791-19.826,32.5-38.928,29.745l-51.158-7.348c-1.185,3.034-1.645,6.4-1.185,9.858
			c1.453,10.916,11.482,18.588,22.385,17.125l98.387-13.097l8.465,34.902h3.408c5.754-9.274,13.421-17.244,22.604-23.422
			c2.634-1.772,5.362-3.363,8.161-4.787L244.139,196.35z"/>
	</g>
</g>
<g>
	<g>
		<path d="M375.564,240.004c-0.324-0.001-87.86,0-88.184,0c-21.882-0.002-41.564,11.783-51.819,30.332l138.258,13.11H208.767
			c-9.171,0-16.607,7.435-16.607,16.607s7.436,16.607,16.607,16.607c183.103,0,176.889-0.12,176.889-0.12
			c11.374,0.145,21.085-9.138,21.146-20.908l0.122-23.724C407.014,254.522,392.973,240.093,375.564,240.004z"/>
	</g>
</g>
<g>
	<g>
		<path d="M184.102,276.4c-2.831,0-141.209,0-148.547,0c-11.006,0-19.93,8.923-19.93,19.93c0,11.006,8.923,19.93,19.93,19.93
			c4.877,0,137.306,0,142.559,0c-2.315-3.971-3.819-8.499-4.249-13.381C172.956,292.548,177.035,282.935,184.102,276.4z"/>
	</g>
</g>
<g>
	<g>
		<path d="M509.281,351.49c0-9.53-7.727-17.256-17.256-17.256c-11.964,0-458.758,0-472.05,0c-9.529,0-17.256,7.725-17.256,17.256
			c0,8.092,5.578,14.863,13.093,16.728c-0.001,0.084-0.007,0.165-0.007,0.249v111.556c0,17.632,14.346,31.978,31.978,31.978
			c9.529,0,17.256-7.725,17.256-17.256c0-8.67-6.393-15.845-14.722-17.07V371.001h411.365v106.675
			c-8.329,1.225-14.722,8.401-14.722,17.07c0,9.53,7.727,17.256,17.256,17.256c17.633,0,31.978-14.346,31.978-31.978V368.467
			c0-0.084-0.006-0.165-0.007-0.249C503.702,366.353,509.281,359.582,509.281,351.49z"/>
	</g>
</g>
<g>
	<g>
		<path d="M277.598,142.407L219.309,85.84c-3.148-3.055-7.362-4.764-11.748-4.764c-23.383,0-68.586,0-90.75,0
			c-5.624,0-10.879,2.803-14.011,7.474l-32.611,48.624c-0.002,0.002-16.642,24.814-16.642,24.814
			c-3.641,5.43-3.815,12.556-0.399,18.167c2.542,4.176,6.916,7.196,12.013,7.928l78.519,11.277
			c9.244,1.328,17.782-5.12,19.097-14.301c1.324-9.223-5.078-17.773-14.301-19.098l-51.961-7.463
			c10.728-15.996,10.358-15.444,21.176-31.574v16.99l33.264,4.777c12.395,1.779,22.336,9.954,26.865,20.899l29.231-4.536v-44.095
			l38.237,37.108l-4.524,9.176c9.955,4.699,17.591,13.7,20.331,24.995l1.637,6.749l18.248-37.013
			C284.217,155.409,282.85,147.505,277.598,142.407z"/>
	</g>
</g>
<g>
	<g>
		<path d="M496.822,289.908c-0.475-2.971-3.042-5.244-6.147-5.244h-11.107c8.481-6.362,13.997-16.473,14.067-27.893
			c0.12-19.398-15.508-35.22-34.906-35.34c-0.075,0-0.148-0.001-0.222-0.001c-19.295,0.001-34.998,15.583-35.118,34.906
			c-0.072,11.576,5.467,21.876,14.066,28.328h-7.94c-3.442,0-6.232,2.79-6.232,6.232c0,3.883,0,14.279,0,18.036
			c0.002,3.443,2.793,6.234,6.235,6.234h61.158c3.442,0,6.232-2.79,6.232-6.232C496.908,289.819,496.963,290.785,496.822,289.908z"
			/>
	</g>
</g>
</svg>