<?xml version="1.0" ?><!-- Uploaded to: SVG Repo, www.svgrepo.com, Generator: SVG Repo Mixer Tools -->
<svg width="800px" height="800px" viewBox="0 0 100 100" data-name="Layer 1" id="Layer_1" xmlns="http://www.w3.org/2000/svg"><defs><style>.cls-1{fill:none;stroke:#000000;stroke-linecap:round;stroke-linejoin:round;stroke-width:2px;}</style></defs><path class="cls-1" d="M60.15,28.6a17,17,0,0,1-1.3,6,20,20,0,0,1-1.7,3.4c-1.84,3-4.38,5.24-7.17,5.24a5.48,5.48,0,0,1-2.24-.49A11.5,11.5,0,0,1,43,38.19a20.25,20.25,0,0,1-1.81-3.64A17.58,17.58,0,0,1,40,28.6,8.11,8.11,0,0,1,40,27.39l.12-.32s9.62-.22,13-5.42c.45.12.93.24,1.41.38a7.66,7.66,0,0,0,5.27,4.56l.18.46h0a2.21,2.21,0,0,1,0,.37A7.58,7.58,0,0,1,60.15,28.6Z"/><path class="cls-1" d="M41.18,34.55a1.72,1.72,0,0,1-1,.34A4.3,4.3,0,0,1,37.34,33h0a4.29,4.29,0,0,1-1-2.35,3.69,3.69,0,0,1,1.58-3.06h0a1.93,1.93,0,0,1,.38-.19,2.22,2.22,0,0,1,.82-.16,3,3,0,0,1,.91.16A8.11,8.11,0,0,0,40,28.6,17.58,17.58,0,0,0,41.18,34.55Z"/><path class="cls-1" d="M63.7,30.72c0,1.63-2.25,4.23-3.88,4.23a1.73,1.73,0,0,1-1-.34h0a17.62,17.62,0,0,0,1.26-5.94A7,7,0,0,0,60,27.45l0,0a3,3,0,0,1,.86-.14,2.18,2.18,0,0,1,.92.21A3.57,3.57,0,0,1,63.7,30.72Z"/><polygon class="cls-1" points="60.3 54.82 62.65 58.99 50.01 77.29 53.76 62.95 58.21 45.97 65.21 51.79 60.3 54.82"/><polygon class="cls-1" points="37.35 58.99 39.71 54.82 34.79 51.79 41.8 45.97 46.28 63.05 50.01 77.29 37.35 58.99"/><polygon class="cls-1" points="53.76 62.95 50.01 77.29 46.28 63.05 50.11 48.59 53.76 62.95"/><path class="cls-1" d="M49.92,84.22H25.72V66.4a15.1,15.1,0,0,1,5.46-11.62L41.79,46l8.32,2.61,8-2.61h.11l10.61,8.81A15.1,15.1,0,0,1,74.28,66.4V84.22H50.08"/><path class="cls-1" d="M38.61,80H41V73.16a5.81,5.81,0,0,0-5.81-5.81h0a5.82,5.82,0,0,0-5.82,5.81V80h2.47"/><line class="cls-1" x1="65.21" x2="65.21" y1="70.75" y2="51.79"/><line class="cls-1" x1="35.18" x2="35.18" y1="67.35" y2="51.47"/><circle class="cls-1" cx="65.21" cy="73.69" r="2.94"/><path class="cls-1" d="M47.74,42.76H35s2.17-7,2.3-9.76a4.3,4.3,0,0,0,2.85,1.89,1.72,1.72,0,0,0,1-.34A20.25,20.25,0,0,0,43,38.19,11.5,11.5,0,0,0,47.74,42.76Z"/><path class="cls-1" d="M52.22,42.76h12.7s-2.17-7-2.3-9.76a4.3,4.3,0,0,1-2.85,1.89,1.72,1.72,0,0,1-1-.34A20.25,20.25,0,0,1,57,38.18,11.59,11.59,0,0,1,52.22,42.76Z"/><line class="cls-1" x1="37.34" x2="37.34" y1="33" y2="32.99"/><line class="cls-1" x1="47.76" x2="47.74" y1="42.76" y2="42.76"/><path class="cls-1" d="M61.85,27.5a2.18,2.18,0,0,0-.92-.21,3,3,0,0,0-.86.14,2.21,2.21,0,0,0,0-.37h0l-.18-.46A7.66,7.66,0,0,1,54.58,22c-.48-.14-1-.26-1.41-.38-3.4,5.2-13,5.42-13,5.42l-.12.32a3,3,0,0,0-.91-.16,2.22,2.22,0,0,0-.82.16s-1.43-8.13,4.23-11.27a13.47,13.47,0,0,1,7.39-1.86c4.87,0,9.47,2,11.35,5.52C62.33,21.76,62,24.12,61.85,27.5Z"/></svg>