<?xml version="1.0" ?><!-- Uploaded to: SVG Repo, www.svgrepo.com, Generator: SVG Repo Mixer Tools -->
<svg fill="#000000" width="800px" height="800px" viewBox="0 0 16 16" data-name="Layer 1" id="Layer_1" xmlns="http://www.w3.org/2000/svg"><title/><path d="M8,1A7,7,0,1,1,1,8,7.008,7.008,0,0,1,8,1M8,0a8,8,0,1,0,8,8A8,8,0,0,0,8,0Z"/><path d="M6.954,4.79l.47-.892L4.77,2.5l-.47.892L5.647,4.1A1.6,1.6,0,0,0,5,5.5C5,6.328,5.448,7,6,7s1-.672,1-1.5a2.068,2.068,0,0,0-.143-.762Z"/><path d="M10.353,4.1,11.7,3.392,11.23,2.5,8.576,3.9l.47.892.1-.052A2.068,2.068,0,0,0,9,5.5C9,6.328,9.448,7,10,7s1-.672,1-1.5A1.6,1.6,0,0,0,10.353,4.1Z"/><path d="M11.5,8h-7a1,1,0,0,0-1,1v2a1,1,0,0,0,1,1h7a1,1,0,0,0,1-1V9a1,1,0,0,0-1-1Zm-1,3V9h1v2Zm-2,0V9h1v2Zm-2,0V9h1v2Zm-2,0V9h1v2Z"/></svg>