<?xml version="1.0" standalone="no"?>
<!DOCTYPE svg PUBLIC "-//W3C//DTD SVG 20010904//EN"
 "http://www.w3.org/TR/2001/REC-SVG-20010904/DTD/svg10.dtd">
<svg version="1.0" xmlns="http://www.w3.org/2000/svg"
 width="512.000000pt" height="512.000000pt" viewBox="0 0 512.000000 512.000000"
 preserveAspectRatio="xMidYMid meet">

<g transform="translate(0.000000,512.000000) scale(0.100000,-0.100000)"
fill="#000000" stroke="none">
<path d="M1490 4973 c-371 -13 -845 -45 -937 -64 -109 -22 -184 -100 -203
-211 -11 -67 27 -1952 41 -2025 18 -94 76 -152 170 -172 27 -6 108 -11 178
-11 70 0 216 -3 324 -7 l197 -6 0 -42 0 -43 -367 -6 c-435 -7 -575 -17 -663
-48 -120 -43 -198 -142 -220 -278 -22 -144 -4 -354 38 -436 41 -79 108 -125
210 -144 79 -14 3593 6 3692 21 237 37 333 210 295 532 -16 138 -37 202 -83
251 -51 54 -66 56 -384 56 -280 0 -777 15 -845 26 -31 5 -33 7 -33 47 l0 42
368 0 c354 0 369 1 413 21 25 12 62 41 81 63 60 71 63 95 61 486 -1 193 -5
414 -9 493 l-6 142 79 0 c148 0 262 -47 366 -151 76 -75 117 -153 137 -257 17
-87 7 -207 -24 -280 -13 -31 -41 -97 -62 -147 -85 -203 -32 -329 185 -431 53
-25 123 -59 156 -74 110 -53 165 -129 164 -230 0 -103 -58 -193 -140 -220 -50
-17 -122 -86 -135 -130 -7 -27 -19 -36 -67 -55 -239 -98 -513 -411 -576 -660
-10 -38 -12 -40 -51 -41 -56 -2 -129 -42 -162 -90 -18 -24 -33 -65 -41 -109
-8 -39 -19 -80 -25 -92 -80 -150 221 -457 522 -533 120 -30 187 -24 257 23 19
12 56 31 83 41 120 46 188 185 142 291 -12 29 -11 32 36 84 100 110 228 366
289 579 23 79 33 136 36 217 5 89 10 115 26 137 33 45 35 124 3 186 l-26 51
23 28 c96 117 137 290 104 433 -42 177 -115 267 -319 393 -94 59 -135 98 -161
156 -24 56 -18 100 32 223 59 148 66 180 66 323 -1 141 -14 203 -65 305 -118
235 -340 370 -610 370 -62 0 -130 -6 -163 -15 -32 -8 -62 -15 -66 -15 -17 0
-21 89 -22 445 -1 198 -5 374 -11 392 -20 68 -37 71 -753 129 -436 35 -1136
52 -1545 37z m1020 -88 c290 -13 794 -48 865 -60 17 -2 93 -9 170 -16 76 -6
147 -15 158 -20 16 -9 18 -20 15 -87 -2 -42 4 -502 15 -1022 20 -1049 21
-1035 -39 -1095 -23 -23 -49 -37 -87 -45 -42 -10 -358 -8 -1513 9 -802 12
-1477 24 -1499 27 -93 14 -124 54 -131 168 -12 183 -42 1895 -34 1937 25 132
60 149 365 173 555 44 1181 56 1715 31z m1681 -979 c160 -38 316 -161 392
-311 43 -86 60 -161 59 -265 -1 -94 -3 -108 -71 -360 -54 -199 -12 -292 192
-427 56 -36 124 -89 152 -117 118 -118 154 -292 93 -455 -25 -65 -63 -130 -82
-137 -10 -4 -81 25 -105 42 -2 2 6 15 17 31 73 103 67 271 -12 375 -44 58
-114 103 -245 158 -125 52 -178 91 -209 150 -32 61 -26 130 23 246 71 171 78
200 79 319 0 122 -15 189 -65 287 -89 177 -301 297 -522 298 l-78 0 3 72 3 72
45 13 c112 34 212 36 331 9z m-1803 -1442 l432 -7 0 -45 0 -45 -132 6 c-73 4
-403 10 -733 13 -419 5 -602 10 -607 18 -4 6 -8 26 -8 45 l0 34 308 -7 c169
-3 502 -9 740 -12z m37 -164 c204 -6 518 -17 699 -25 181 -8 468 -15 638 -15
l310 0 28 -29 c16 -16 35 -52 44 -82 18 -63 35 -243 28 -312 l-4 -48 -647 7
c-632 7 -647 6 -670 -13 -27 -22 -29 -42 -17 -150 l8 -73 -913 -2 c-1688 -5
-1658 -5 -1711 15 -101 39 -132 116 -133 327 0 257 53 343 238 382 118 24
1435 36 2102 18z m2425 -531 c49 -26 65 -40 89 -79 21 -36 27 -75 13 -98 -6
-9 -14 -4 -30 17 -31 43 -168 108 -243 117 l-61 7 25 24 c44 45 135 50 207 12z
m-702 -24 c9 -9 -33 -78 -64 -105 -72 -63 -84 -64 -670 -68 l-531 -3 -10 83
c-7 59 -7 87 1 97 9 12 106 13 641 7 346 -4 631 -9 633 -11z m604 -117 c51
-15 107 -64 129 -112 56 -123 -33 -457 -196 -732 -63 -107 -101 -151 -146
-174 -72 -37 -162 -19 -333 65 -225 112 -281 202 -225 368 54 160 202 357 352
469 165 122 283 155 419 116z m-862 -766 c26 -98 114 -178 284 -261 139 -68
198 -86 281 -86 77 0 94 -12 95 -68 1 -94 -91 -167 -209 -167 -92 0 -255 62
-372 141 -82 55 -184 153 -214 204 -77 131 -34 275 82 275 41 0 43 -2 53 -38z
m-118 -384 c127 -128 312 -230 482 -267 l81 -18 -42 -7 c-71 -13 -200 17 -307
71 -173 87 -347 276 -346 377 1 29 3 26 33 -29 17 -33 62 -90 99 -127z"/>
<path d="M1405 4813 c-256 -10 -644 -43 -693 -59 -66 -22 -116 -71 -138 -138
-16 -48 -17 -95 -5 -721 20 -1025 23 -1091 50 -1148 28 -57 83 -93 156 -102
87 -11 2588 -44 2635 -35 101 19 149 56 179 136 19 50 21 77 21 292 -1 130 -7
516 -14 857 -7 341 -11 644 -8 674 5 69 -12 126 -44 147 -25 17 -241 40 -739
79 -201 16 -1155 29 -1400 18z m1385 -97 c462 -37 696 -60 709 -70 10 -8 12
-27 8 -76 -3 -36 1 -353 9 -705 7 -352 14 -734 14 -849 0 -191 -2 -213 -20
-252 -37 -76 -53 -79 -365 -76 -923 9 -2355 34 -2387 43 -51 13 -75 48 -82
117 -9 82 -39 1538 -34 1652 4 112 22 148 89 174 38 15 427 49 694 60 228 9
1188 -4 1365 -18z"/>
<path d="M1653 4568 c-22 -29 -79 -111 -128 -183 -49 -71 -211 -291 -359 -488
-149 -197 -286 -379 -303 -405 -74 -105 -50 -172 107 -297 89 -71 217 -150
325 -201 611 -288 1303 -207 1836 217 118 94 215 199 230 248 10 34 9 47 -5
83 -16 42 -786 1049 -807 1057 -6 2 -25 -10 -42 -27 -88 -83 -212 -132 -342
-134 -115 -2 -194 27 -371 133 -45 27 -86 49 -92 49 -5 0 -27 -24 -49 -52z
m122 -33 c82 -52 184 -101 250 -120 65 -19 197 -22 255 -5 43 12 40 13 40 -3
0 -30 -38 -50 -79 -43 -47 7 -61 -6 -29 -28 54 -38 128 -6 149 63 8 29 20 43
47 55 l35 17 -6 -50 c-13 -110 -65 -165 -147 -157 -25 2 -54 5 -64 7 -29 6
-30 -18 -2 -36 31 -21 104 -22 142 -2 66 34 102 99 110 195 5 59 10 70 37 94
l30 27 48 -62 c42 -54 46 -63 31 -70 -100 -52 -135 -102 -172 -244 -8 -32 -19
-47 -42 -59 -33 -17 -40 -16 -168 11 -100 22 -176 8 -259 -45 -32 -21 -62 -43
-66 -50 -5 -8 -17 3 -35 33 -34 54 -100 109 -166 139 -51 23 -169 31 -226 15
-37 -10 -35 1 5 45 38 41 99 62 152 52 20 -3 75 -30 123 -59 107 -65 156 -80
213 -65 39 11 79 41 79 59 0 19 -22 23 -39 7 -9 -9 -31 -21 -49 -27 -41 -14
-81 -1 -185 62 -94 58 -140 72 -198 63 l-42 -7 32 47 c18 26 39 50 47 53 29
11 61 -8 94 -53 41 -58 104 -89 161 -80 51 8 89 26 89 42 0 22 -18 25 -53 8
-58 -28 -102 -13 -167 57 -30 32 -65 62 -77 66 l-23 8 25 38 c14 20 30 37 36
37 5 0 34 -16 64 -35z m935 -207 c0 -4 -9 -9 -19 -13 -46 -14 -87 -79 -125
-197 -55 -173 -97 -200 -214 -137 -45 24 -64 29 -92 24 -77 -14 -140 -82 -155
-168 -6 -33 -10 -37 -29 -30 -59 20 -96 -5 -96 -64 0 -31 -2 -33 -20 -23 -14
7 -26 8 -39 0 -33 -17 -35 -47 -7 -95 14 -24 26 -48 26 -54 0 -21 -58 -11 -89
15 -36 30 -38 42 -11 86 22 36 26 94 9 131 -9 21 -7 30 12 56 19 26 21 36 13
59 -9 25 -14 27 -61 26 -50 -2 -51 -1 -68 37 -62 137 -248 146 -372 18 -78
-81 -107 -196 -74 -293 17 -49 73 -112 123 -137 36 -18 38 -22 38 -67 0 -115
54 -243 140 -336 100 -106 195 -142 355 -134 76 4 105 11 157 35 73 34 130 81
164 134 l23 37 48 -25 c39 -20 59 -24 107 -21 51 4 63 9 87 36 38 42 39 93 4
127 -13 14 -31 25 -38 25 -13 0 -13 7 0 51 9 32 14 78 11 123 -4 87 -33 140
-101 183 -35 23 -54 28 -117 29 -72 2 -75 3 -72 26 4 38 30 50 97 44 33 -3 90
-8 126 -12 55 -5 72 -3 106 15 79 40 112 102 129 241 8 73 30 117 67 137 l31
16 38 -44 38 -44 -30 -23 c-77 -61 -88 -149 -35 -278 62 -149 47 -192 -85
-251 -80 -36 -120 -80 -120 -132 0 -29 11 -52 46 -100 54 -72 65 -125 37 -180
-45 -87 -142 -122 -266 -96 -90 19 -121 19 -156 0 -40 -20 -61 -71 -61 -148
l0 -66 -57 -7 c-94 -11 -312 7 -445 37 l-48 11 0 56 c-1 113 -54 178 -173 213
-107 31 -126 39 -147 67 -27 33 -25 69 5 134 15 32 25 71 25 100 0 45 -2 48
-67 105 -75 66 -113 133 -113 202 0 40 9 55 96 172 141 189 188 222 314 223
63 1 84 -4 132 -27 64 -31 140 -109 160 -163 16 -44 33 -43 75 5 37 43 115 85
178 94 24 4 78 -2 139 -14 81 -17 107 -19 137 -10 48 15 85 59 94 113 16 91
66 162 140 194 28 12 32 11 52 -14 13 -15 23 -30 23 -34z m48 -56 c2 -7 -3
-12 -11 -12 -21 0 -84 -73 -91 -106 -3 -16 -10 -61 -16 -101 -13 -93 -33 -134
-83 -167 -47 -30 -82 -32 -182 -11 -115 24 -188 -12 -190 -93 -1 -43 -8 -58
-37 -73 -21 -11 -21 -10 -15 54 10 111 48 176 114 198 31 10 41 8 94 -20 69
-36 118 -39 165 -10 44 27 67 67 99 174 33 109 58 153 99 171 34 15 48 14 54
-4z m142 -240 c-38 -30 -54 -80 -41 -127 5 -20 30 -71 55 -114 81 -137 54
-213 -81 -236 -76 -12 -115 -63 -93 -120 5 -14 26 -47 45 -72 41 -54 43 -65
13 -93 -17 -16 -19 -23 -10 -32 16 -16 42 -1 60 36 17 33 6 69 -36 123 -59 75
-49 103 38 122 107 23 150 68 150 156 0 41 -8 64 -51 138 -57 99 -65 145 -31
180 11 11 27 17 35 14 8 -3 46 -47 85 -98 66 -86 70 -93 57 -113 -22 -30 -18
-74 10 -131 34 -71 33 -99 -8 -124 -39 -24 -57 -58 -57 -105 0 -33 20 -62 33
-49 4 3 7 25 7 48 0 38 5 46 45 79 39 32 45 43 45 74 0 20 -11 61 -25 90 -26
57 -31 87 -16 97 12 7 153 -174 182 -233 28 -58 20 -82 -52 -156 -48 -50 -61
-58 -69 -46 -17 25 -11 80 11 112 17 23 19 32 10 41 -10 9 -19 4 -42 -21 -23
-26 -29 -41 -29 -80 0 -28 7 -57 16 -71 16 -23 16 -24 -22 -57 -73 -63 -188
-139 -179 -118 5 10 10 39 13 64 3 37 -2 52 -24 85 -33 49 -36 93 -5 114 67
48 68 49 47 57 -27 10 -66 -7 -90 -39 -29 -39 -27 -93 7 -142 47 -70 32 -123
-55 -198 -61 -52 -107 -76 -221 -118 -78 -29 -258 -79 -284 -79 -24 0 -13 29
22 57 39 31 45 53 16 53 -29 0 -78 -46 -91 -84 -10 -31 -41 -52 -54 -38 -3 3
-6 34 -6 69 0 55 4 68 25 88 28 29 53 31 152 10 152 -32 279 29 313 150 18 65
5 116 -46 182 -27 34 -44 67 -44 83 0 35 40 71 120 108 137 62 153 129 76 307
-41 96 -31 166 30 214 l26 20 23 -27 24 -27 -29 -23z m-1252 -2 c18 -11 41
-34 50 -51 40 -73 51 -81 98 -74 52 7 56 -4 13 -38 l-31 -24 21 -34 c12 -19
21 -48 21 -65 0 -35 -30 -80 -60 -89 -27 -8 -28 -49 -1 -42 13 3 24 -5 36 -25
21 -36 71 -68 107 -68 36 0 27 -25 -13 -39 -41 -14 -75 1 -100 44 -21 35 -42
42 -47 14 -4 -26 38 -80 75 -95 51 -22 95 -11 132 32 40 45 42 103 6 156 -32
47 -31 49 5 42 41 -9 60 10 60 57 0 45 14 57 39 35 41 -37 55 -193 26 -277
-52 -147 -205 -211 -320 -133 -21 14 -44 23 -52 20 -26 -10 6 -47 64 -73 135
-62 289 16 344 172 10 30 19 79 19 109 0 50 4 59 34 90 89 88 232 66 288 -45
24 -45 23 -139 -2 -209 -29 -81 -27 -94 11 -86 60 12 82 -45 33 -83 -34 -27
-85 -27 -143 -1 -42 20 -43 21 -36 58 8 42 8 150 -1 163 -3 5 -12 9 -20 9 -11
0 -14 -16 -14 -73 0 -41 -7 -94 -16 -120 -23 -68 -92 -140 -172 -179 -64 -32
-72 -33 -182 -33 -103 0 -121 3 -170 26 -136 65 -249 244 -250 396 l0 41 51 0
c29 1 56 5 62 11 19 19 -4 29 -63 30 -154 0 -258 134 -215 277 44 149 206 239
313 174z m-474 -384 c14 -24 45 -59 68 -77 24 -18 49 -39 56 -48 19 -23 15
-66 -13 -131 -30 -71 -32 -112 -6 -154 25 -40 61 -60 152 -85 119 -33 169 -85
169 -174 l0 -49 -36 7 c-20 3 -68 18 -105 32 -64 24 -69 27 -69 55 0 37 -44
81 -119 121 -62 33 -86 76 -76 138 6 35 4 39 -14 39 -16 0 -21 -9 -26 -43 -11
-74 27 -138 108 -178 50 -25 87 -57 87 -76 0 -21 -187 77 -247 131 -29 25 -30
82 -3 161 32 93 25 168 -19 202 -39 30 -54 7 -21 -34 25 -33 25 -80 0 -161
-11 -35 -20 -77 -20 -93 0 -16 -3 -29 -6 -29 -3 0 -34 22 -68 50 -70 55 -113
122 -103 161 3 14 45 76 91 138 l85 114 11 -29 c6 -16 36 -51 66 -79 53 -50
54 -52 54 -107 0 -31 4 -59 9 -62 16 -10 33 23 33 62 -1 57 -17 87 -77 145
-46 45 -55 60 -55 89 0 21 9 46 22 63 l21 28 13 -41 c6 -23 23 -61 38 -86z"/>
<path d="M1652 3881 c-8 -22 -18 -30 -39 -33 -17 -2 -29 -10 -31 -20 -3 -14 4
-18 31 -18 41 0 77 34 77 73 0 37 -25 35 -38 -2z"/>
<path d="M1408 3783 c-53 -61 -15 -143 66 -143 30 0 53 25 34 36 -7 5 -23 7
-36 5 -48 -6 -69 41 -32 74 11 10 20 24 20 32 0 19 -34 16 -52 -4z"/>
<path d="M3001 4592 l-28 -28 -44 24 c-110 58 -170 -27 -93 -131 77 -105 148
-113 230 -25 42 44 54 69 54 112 0 72 -68 100 -119 48z m77 -45 c6 -52 -69
-137 -120 -137 -43 0 -129 108 -114 145 8 23 33 18 88 -15 26 -16 52 -30 57
-30 5 0 19 16 30 36 25 42 54 43 59 1z"/>
<path d="M765 2208 c-498 -11 -458 1 -463 -136 -1 -48 1 -93 6 -100 6 -9 137
-13 598 -15 l589 -2 6 120 c3 66 4 126 1 133 -5 14 -78 14 -737 0z m701 -44
c-3 -9 -6 -51 -6 -95 l0 -79 -221 0 -222 0 7 61 c3 34 6 75 6 90 l0 28 88 4
c48 1 147 4 221 5 118 2 132 0 127 -14z m-586 -78 c0 -50 -4 -88 -11 -91 -6
-4 -68 -4 -139 0 l-129 7 -3 79 -3 78 55 4 c30 2 94 4 143 5 l87 2 0 -84z
m110 62 c0 -13 -3 -53 -7 -90 -6 -67 -6 -68 -34 -68 l-29 0 0 90 0 90 35 0
c30 0 35 -3 35 -22z m-512 -70 l3 -78 -71 0 -70 0 0 64 c0 95 2 97 74 94 l61
-3 3 -77z m76 66 c3 -9 6 -45 6 -80 0 -57 -2 -64 -20 -64 -18 0 -20 7 -20 80
0 62 3 80 14 80 8 0 17 -7 20 -16z"/>
<path d="M1770 2191 c-181 -55 -234 -275 -99 -410 53 -53 105 -75 184 -75 154
-1 264 103 265 250 0 111 -67 202 -171 233 -41 12 -141 13 -179 2z m204 -104
c46 -36 66 -75 66 -129 0 -57 -26 -106 -75 -140 -77 -54 -170 -45 -236 21 -62
62 -71 150 -23 220 47 66 197 82 268 28z"/>
<path d="M2337 2186 c-111 -41 -162 -114 -162 -231 1 -85 25 -138 87 -187 60
-48 103 -63 178 -62 102 2 176 44 226 129 69 119 23 274 -100 337 -52 27 -174
35 -229 14z m193 -88 c87 -44 113 -152 57 -237 -67 -100 -237 -102 -303 -2
-60 92 -33 205 60 246 50 22 135 18 186 -7z"/>
<path d="M985 1919 c-154 -3 -359 -7 -456 -8 -225 -1 -223 0 -227 -128 -1 -48
1 -94 6 -101 12 -18 1161 -36 1179 -19 9 10 20 200 14 255 -1 13 -26 13 -516
1z m476 -129 c-1 -52 -3 -96 -5 -97 -1 -2 -66 0 -144 4 l-142 6 0 57 c0 32 3
71 6 88 6 29 9 31 58 35 28 2 91 3 140 3 l89 -1 -2 -95z m-395 74 c-3 -9 -6
-49 -6 -90 l0 -74 -235 0 -235 0 0 85 0 84 103 4 c307 9 379 8 373 -9z m70 -6
c-3 -13 -6 -53 -6 -90 0 -54 -3 -68 -15 -68 -12 0 -15 15 -15 74 0 84 6 106
27 106 11 0 14 -6 9 -22z m-666 -68 l0 -80 -65 0 -65 0 0 61 c0 87 9 99 75 99
l55 0 0 -80z m80 0 c0 -73 -2 -80 -20 -80 -18 0 -20 7 -20 80 0 73 2 80 20 80
18 0 20 -7 20 -80z"/>
<path d="M4288 1306 c-57 -22 -85 -44 -118 -94 -75 -114 -9 -266 152 -348 209
-106 425 51 363 263 -20 70 -64 114 -152 155 -75 36 -186 46 -245 24z m178
-41 c65 -19 140 -67 163 -106 61 -100 15 -233 -95 -275 -178 -68 -419 142
-339 296 16 31 66 73 105 89 37 14 110 13 166 -4z"/>
<path d="M4302 1220 c-65 -40 -91 -125 -58 -189 19 -36 80 -90 122 -107 127
-53 263 45 239 172 -20 108 -205 184 -303 124z m193 -48 c65 -36 86 -83 64
-146 -36 -103 -194 -99 -267 9 -33 47 -29 90 12 131 30 30 40 34 88 34 39 0
66 -8 103 -28z"/>
</g>
</svg>
